<mxfile host="app.diagrams.net" modified="2020-08-17T10:49:46.504Z" agent="5.0 (Windows NT 10.0; Win64; x64) AppleWebKit/537.36 (KHTML, like Gecko) Chrome/84.0.4147.89 Safari/537.36" etag="CRNJT5sWFEEr27FN62-k" version="13.6.2" type="github">
  <diagram id="AsJ9koxPSwb8MQXxoYlD" name="Page-1">
    <mxGraphModel dx="964" dy="620" grid="1" gridSize="10" guides="1" tooltips="1" connect="1" arrows="1" fold="1" page="1" pageScale="1" pageWidth="827" pageHeight="1169" math="0" shadow="0">
      <root>
        <mxCell id="0" />
        <mxCell id="1" parent="0" />
      </root>
    </mxGraphModel>
  </diagram>
</mxfile>
